<svg width="210" height="44" viewBox="0 0 210 44" fill="none" xmlns="http://www.w3.org/2000/svg">
<path d="M17.1149 42.6731L0.5 10.8785H6.73748L20.6476 38.6988H20.7028L45.6528 10.8785H51.559L46.2599 42.6731H17.1149Z" fill="#FF8A1E"/>
<path d="M46.2599 42.6731V0.280273H51.559V24.761L72.6727 10.8785H80.7041L58.2657 25.8098L81.5873 42.6731H73.6938L51.559 26.3618V42.6731H46.2599Z" fill="#FF8A1E"/>
<path d="M91.959 43.2807C87.8007 43.2807 84.5256 42.8299 82.1336 41.9283C79.7417 41.0084 78.0397 39.4812 77.0277 37.3468C76.0157 35.1941 75.5097 32.2593 75.5097 28.5426V10.8789H80.8364V28.5426C80.8364 30.6402 81.002 32.3697 81.3332 33.7313C81.6828 35.0745 82.29 36.1233 83.1548 36.8776C84.0196 37.6136 85.234 38.1288 86.7979 38.4232C88.3803 38.7176 90.4135 38.8648 92.8974 38.8648C96.5773 38.8648 99.4661 38.5612 101.564 37.954C103.661 37.3468 105.142 36.3993 106.007 35.1113C106.89 33.8049 107.332 32.1121 107.332 30.033V10.8789H112.631V42.6735H107.332V38.4508C106.559 39.518 105.584 40.4104 104.406 41.128C103.229 41.8455 101.656 42.3791 99.6869 42.7287C97.7181 43.0967 95.1422 43.2807 91.959 43.2807Z" fill="#FF8A1E"/>
<path d="M124.725 43.2796C120.861 43.2796 117.751 43.1508 115.396 42.8932C113.059 42.6356 111.284 42.1572 110.069 41.458C108.873 40.7589 108.064 39.7653 107.641 38.4773C107.236 37.1893 107.033 35.515 107.033 33.4542H112.112C112.112 34.6134 112.195 35.5518 112.36 36.2693C112.526 36.9685 112.995 37.5113 113.768 37.8977C114.541 38.2657 115.792 38.5233 117.521 38.6705C119.269 38.7993 121.716 38.8637 124.863 38.8637C128.193 38.8637 123.646 38.7993 125.486 38.6705C127.344 38.5233 128.678 38.2657 129.488 37.8977C130.298 37.5113 130.785 36.9593 130.951 36.2417C131.135 35.5242 131.227 34.5766 131.227 33.399C131.227 31.9638 131.098 30.8874 130.84 30.1699C130.583 29.4523 129.976 28.9739 129.019 28.7347C128.062 28.4771 126.535 28.3391 124.437 28.3207L118.929 28.1827C115.672 28.1459 113.188 27.8699 111.477 27.3547C109.766 26.8395 108.597 25.9379 107.972 24.65C107.346 23.3436 107.033 21.4944 107.033 19.1025C107.033 16.8761 107.374 15.1557 108.055 13.9414C108.754 12.727 109.839 11.8622 111.311 11.347C112.783 10.8318 114.697 10.5282 117.052 10.4362C119.407 10.3258 122.25 10.2706 125.58 10.2706C129.5 10.2706 132.609 10.3902 134.909 10.6294C137.227 10.8686 138.957 11.3194 140.098 11.9818C141.257 12.6442 142.011 13.6102 142.361 14.8797C142.729 16.1309 142.913 17.7685 142.913 19.7924H137.835C137.835 18.5965 137.752 17.6581 137.586 16.9773C137.421 16.2781 136.97 15.7721 136.234 15.4593C135.516 15.1281 134.339 14.9165 132.701 14.8245C131.082 14.7325 128.8 14.6865 125.856 14.6865C122.508 14.6865 119.904 14.7233 118.046 14.7969C116.187 14.8705 114.844 15.0453 114.016 15.3213C113.188 15.5973 112.682 16.0389 112.498 16.6461C112.314 17.2349 112.222 18.0537 112.222 19.1025C112.222 20.1696 112.277 21.016 112.388 21.6416C112.517 22.2488 112.839 22.7088 113.354 23.0216C113.869 23.3344 114.706 23.546 115.865 23.6564C117.043 23.7484 118.681 23.8036 120.778 23.822L124.548 23.9324C127.823 23.9692 130.307 24.2452 132 24.7604C133.711 25.2571 134.87 26.1863 135.477 27.5479C136.103 28.8911 136.415 30.8414 136.415 33.399C136.415 35.699 136.075 37.5113 135.394 38.8361C134.732 40.1609 133.665 41.1452 132.193 41.7892C130.721 42.4148 128.78 42.8196 126.369 43.0036C123.977 43.1876 128.184 43.2796 124.725 43.2796Z" fill="#FF8A1E"/>
<path d="M137.835 42.6636V19.7836H143.134V15.0917C143.925 14.0245 144.9 13.1322 146.059 12.4146C147.237 11.697 148.801 11.1634 150.751 10.8138C152.72 10.4458 155.296 10.2618 158.479 10.2618C162.637 10.2618 165.912 10.6666 168.304 11.4762C170.715 12.2858 172.426 13.7302 173.438 15.8093C174.45 17.8885 174.956 20.8324 174.956 24.6412V42.6636H169.629V24.6412C169.629 22.47 169.445 20.722 169.077 19.3972C168.709 18.0725 168.074 17.0697 167.173 16.3889C166.29 15.7081 165.066 15.2573 163.502 15.0365C161.938 14.7973 159.951 14.6777 157.541 14.6777C153.861 14.6777 150.972 14.9813 148.874 15.5885C146.777 16.1957 145.296 17.1525 144.431 18.4589C143.566 19.7468 143.134 21.4304 143.134 23.5096V42.6636H137.835Z" fill="#FF8A1E"/>
<path d="M190.041 43.2708C186.49 43.2708 183.472 43.0868 180.988 42.7188C178.504 42.3692 176.498 41.6424 174.971 40.5385C173.444 39.4161 172.331 37.7417 171.632 35.5154C170.933 33.289 170.583 30.3174 170.583 26.6007C170.583 22.9944 170.933 20.1056 171.632 17.9345C172.331 15.7633 173.444 14.1257 174.971 13.0218C176.498 11.9178 178.504 11.1818 180.988 10.8138C183.472 10.4458 186.49 10.2618 190.041 10.2618C193.61 10.2618 196.628 10.4458 199.093 10.8138C201.577 11.1818 203.583 11.9178 205.11 13.0218C206.637 14.1257 207.75 15.7633 208.449 17.9345C209.149 20.1056 209.498 22.9944 209.498 26.6007C209.498 30.3174 209.149 33.289 208.449 35.5154C207.75 37.7417 206.637 39.4161 205.11 40.5385C203.583 41.6424 201.577 42.3692 199.093 42.7188C196.628 43.0868 193.61 43.2708 190.041 43.2708ZM204.199 26.6007C204.199 23.9696 204.061 21.8628 203.785 20.2804C203.528 18.6981 202.948 17.5113 202.046 16.7201C201.145 15.9105 199.737 15.3677 197.824 15.0917C195.929 14.8157 193.334 14.6777 190.041 14.6777C186.766 14.6777 184.171 14.8157 182.258 15.0917C180.344 15.3677 178.936 15.9105 178.035 16.7201C177.133 17.5113 176.544 18.6981 176.268 20.2804C176.011 21.8628 175.882 23.9696 175.882 26.6007C175.882 29.3239 176.011 31.5042 176.268 33.1418C176.544 34.7794 177.133 36.0121 178.035 36.8401C178.936 37.6497 180.344 38.1925 182.258 38.4685C184.171 38.7261 186.766 38.8549 190.041 38.8549C193.334 38.8549 195.929 38.7261 197.824 38.4685C199.737 38.1925 201.145 37.6497 202.046 36.8401C202.948 36.0121 203.528 34.7794 203.785 33.1418C204.061 31.5042 204.199 29.3239 204.199 26.6007Z" fill="#FF8A1E"/>
</svg>
